/* XPM */
static char * scrafcols_xpm[] = {
"125 10 3 1",
" 	c black",
".	c yellow",
"X	c white",
"                                                                                                                             ",
"                                                                                                                             ",
"                                                                                                                             ",
".............................................................................................................................",
".............................................................................................................................",
"XXXXXXXXXXXXXXXXXXXXXXXXXXXXXXXXXXXXXXXXXXXXXXXXXXXXXXXXXXXXXXXXXXXXXXXXXXXXXXXXXXXXXXXXXXXXXXXXXXXXXXXXXXXXXXXXXXXXXXXXXXXXX",
"XXXXXXXXXXXXXXXXXXXXXXXXXXXXXXXXXXXXXXXXXXXXXXXXXXXXXXXXXXXXXXXXXXXXXXXXXXXXXXXXXXXXXXXXXXXXXXXXXXXXXXXXXXXXXXXXXXXXXXXXXXXXX",
"                                                                                                                             ",
"                                                                                                                             ",
"                                                                                                                             "};
